<mxfile host="drawio-plugin" modified="2023-02-12T08:18:54.885Z" agent="5.0 (X11; Linux x86_64) AppleWebKit/537.36 (KHTML, like Gecko) Chrome/104.0.5112.102 Safari/537.36" etag="nVbORTFlfvwKFFaQaI5k" version="20.5.3" type="embed"><diagram id="23iRSUPoRavnBvh4doch" name="Page-1"><mxGraphModel dx="1306" dy="750" grid="1" gridSize="10" guides="1" tooltips="1" connect="1" arrows="1" fold="1" page="1" pageScale="1" pageWidth="827" pageHeight="1169" math="0" shadow="0"><root><mxCell id="0"/><mxCell id="1" parent="0"/><mxCell id="2" value="" style="rounded=0;whiteSpace=wrap;html=1;" vertex="1" parent="1"><mxGeometry x="40" y="40" width="480" height="380" as="geometry"/></mxCell><mxCell id="3" value="directory input" style="rounded=0;whiteSpace=wrap;html=1;" vertex="1" parent="1"><mxGeometry x="60" y="60" width="110" height="30" as="geometry"/></mxCell><mxCell id="4" value="directory output" style="rounded=0;whiteSpace=wrap;html=1;" vertex="1" parent="1"><mxGeometry x="390" y="60" width="110" height="30" as="geometry"/></mxCell><mxCell id="5" value="cache directory" style="rounded=0;whiteSpace=wrap;html=1;" vertex="1" parent="1"><mxGeometry x="220" y="60" width="120" height="30" as="geometry"/></mxCell><mxCell id="6" value="steps bar" style="rounded=0;whiteSpace=wrap;html=1;" vertex="1" parent="1"><mxGeometry x="60" y="120" width="440" height="30" as="geometry"/></mxCell><mxCell id="7" value="submit for work" style="rounded=0;whiteSpace=wrap;html=1;" vertex="1" parent="1"><mxGeometry x="420" y="370" width="80" height="30" as="geometry"/></mxCell><mxCell id="8" value="3d-images viewer as a slides" style="rounded=0;whiteSpace=wrap;html=1;" vertex="1" parent="1"><mxGeometry x="60" y="180" width="330" height="220" as="geometry"/></mxCell><mxCell id="9" value="step choose" style="rounded=0;whiteSpace=wrap;html=1;" vertex="1" parent="1"><mxGeometry x="420" y="180" width="80" height="30" as="geometry"/></mxCell><mxCell id="10" value="projection choose" style="rounded=0;whiteSpace=wrap;html=1;" vertex="1" parent="1"><mxGeometry x="420" y="230" width="80" height="30" as="geometry"/></mxCell><mxCell id="11" value="scrollbar" style="rounded=0;whiteSpace=wrap;html=1;" vertex="1" parent="1"><mxGeometry x="420" y="280" width="80" height="30" as="geometry"/></mxCell></root></mxGraphModel></diagram></mxfile>